<mxfile host="app.diagrams.net" modified="2023-08-26T02:38:58.513Z" agent="Mozilla/5.0 (X11; Linux x86_64) AppleWebKit/537.36 (KHTML, like Gecko) Chrome/115.0.0.0 Safari/537.36" etag="5yRDucpxSaE0NzHNuaIB" version="21.6.9">
  <diagram name="Page-1" id="8-HIp5D4FwXp9yzCjokI">
    <mxGraphModel dx="2109" dy="744" grid="1" gridSize="10" guides="1" tooltips="1" connect="1" arrows="1" fold="1" page="1" pageScale="1" pageWidth="850" pageHeight="1100" math="0" shadow="0">
      <root>
        <mxCell id="0" />
        <mxCell id="1" parent="0" />
        <mxCell id="kg1b0J_HvHA9DWDyzsrl-13" value="" style="edgeStyle=orthogonalEdgeStyle;rounded=0;orthogonalLoop=1;jettySize=auto;html=1;" edge="1" parent="1" source="kg1b0J_HvHA9DWDyzsrl-1" target="kg1b0J_HvHA9DWDyzsrl-12">
          <mxGeometry relative="1" as="geometry" />
        </mxCell>
        <mxCell id="kg1b0J_HvHA9DWDyzsrl-49" style="edgeStyle=orthogonalEdgeStyle;rounded=0;orthogonalLoop=1;jettySize=auto;html=1;exitX=1;exitY=1;exitDx=0;exitDy=0;" edge="1" parent="1" source="kg1b0J_HvHA9DWDyzsrl-20" target="kg1b0J_HvHA9DWDyzsrl-47">
          <mxGeometry relative="1" as="geometry" />
        </mxCell>
        <mxCell id="kg1b0J_HvHA9DWDyzsrl-1" value="&lt;b style=&quot;border-color: var(--border-color); color: rgb(0, 0, 0); font-family: Helvetica; font-size: 24px; font-style: normal; font-variant-ligatures: normal; font-variant-caps: normal; letter-spacing: normal; orphans: 2; text-align: center; text-indent: 0px; text-transform: none; widows: 2; word-spacing: 0px; -webkit-text-stroke-width: 0px; text-decoration-thickness: initial; text-decoration-style: initial; text-decoration-color: initial; background-color: rgb(0, 251, 109);&quot;&gt;carreras&lt;/b&gt;" style="rounded=0;whiteSpace=wrap;html=1;fillColor=none;fontColor=#ffffff;strokeColor=#005700;gradientColor=none;gradientDirection=north;" vertex="1" parent="1">
          <mxGeometry x="210" y="200" width="120" height="58" as="geometry" />
        </mxCell>
        <mxCell id="kg1b0J_HvHA9DWDyzsrl-19" style="edgeStyle=orthogonalEdgeStyle;rounded=0;orthogonalLoop=1;jettySize=auto;html=1;exitX=0;exitY=0.5;exitDx=0;exitDy=0;entryX=1;entryY=0.5;entryDx=0;entryDy=0;" edge="1" parent="1" source="kg1b0J_HvHA9DWDyzsrl-2" target="kg1b0J_HvHA9DWDyzsrl-12">
          <mxGeometry relative="1" as="geometry" />
        </mxCell>
        <mxCell id="kg1b0J_HvHA9DWDyzsrl-42" value="" style="edgeStyle=orthogonalEdgeStyle;rounded=0;orthogonalLoop=1;jettySize=auto;html=1;" edge="1" parent="1" source="kg1b0J_HvHA9DWDyzsrl-2" target="kg1b0J_HvHA9DWDyzsrl-41">
          <mxGeometry relative="1" as="geometry" />
        </mxCell>
        <mxCell id="kg1b0J_HvHA9DWDyzsrl-44" value="" style="edgeStyle=orthogonalEdgeStyle;rounded=0;orthogonalLoop=1;jettySize=auto;html=1;" edge="1" parent="1" source="kg1b0J_HvHA9DWDyzsrl-2" target="kg1b0J_HvHA9DWDyzsrl-43">
          <mxGeometry relative="1" as="geometry" />
        </mxCell>
        <mxCell id="kg1b0J_HvHA9DWDyzsrl-46" value="" style="edgeStyle=orthogonalEdgeStyle;rounded=0;orthogonalLoop=1;jettySize=auto;html=1;" edge="1" parent="1" source="kg1b0J_HvHA9DWDyzsrl-2" target="kg1b0J_HvHA9DWDyzsrl-45">
          <mxGeometry relative="1" as="geometry" />
        </mxCell>
        <mxCell id="kg1b0J_HvHA9DWDyzsrl-2" value="&lt;b style=&quot;border-color: var(--border-color); color: rgb(0, 0, 0); font-family: Helvetica; font-size: 24px; font-style: normal; font-variant-ligatures: normal; font-variant-caps: normal; letter-spacing: normal; orphans: 2; text-align: center; text-indent: 0px; text-transform: none; widows: 2; word-spacing: 0px; -webkit-text-stroke-width: 0px; text-decoration-thickness: initial; text-decoration-style: initial; text-decoration-color: initial;&quot;&gt;&lt;span style=&quot;background-color: rgb(0, 251, 109);&quot;&gt;tipos_carreras&lt;/span&gt;&lt;br&gt;&lt;/b&gt;" style="rounded=0;whiteSpace=wrap;html=1;fillColor=none;fontColor=#ffffff;strokeColor=#00FB6D;" vertex="1" parent="1">
          <mxGeometry x="670" y="200" width="190" height="58" as="geometry" />
        </mxCell>
        <mxCell id="kg1b0J_HvHA9DWDyzsrl-48" value="" style="edgeStyle=orthogonalEdgeStyle;rounded=0;orthogonalLoop=1;jettySize=auto;html=1;" edge="1" parent="1" source="kg1b0J_HvHA9DWDyzsrl-53" target="kg1b0J_HvHA9DWDyzsrl-47">
          <mxGeometry relative="1" as="geometry" />
        </mxCell>
        <mxCell id="kg1b0J_HvHA9DWDyzsrl-56" value="" style="edgeStyle=orthogonalEdgeStyle;rounded=0;orthogonalLoop=1;jettySize=auto;html=1;" edge="1" parent="1" source="kg1b0J_HvHA9DWDyzsrl-4" target="kg1b0J_HvHA9DWDyzsrl-55">
          <mxGeometry relative="1" as="geometry" />
        </mxCell>
        <mxCell id="kg1b0J_HvHA9DWDyzsrl-58" value="" style="edgeStyle=orthogonalEdgeStyle;rounded=0;orthogonalLoop=1;jettySize=auto;html=1;" edge="1" parent="1" source="kg1b0J_HvHA9DWDyzsrl-4" target="kg1b0J_HvHA9DWDyzsrl-57">
          <mxGeometry relative="1" as="geometry" />
        </mxCell>
        <mxCell id="kg1b0J_HvHA9DWDyzsrl-4" value="&lt;b style=&quot;border-color: var(--border-color); color: rgb(0, 0, 0); font-family: Helvetica; font-size: 24px; font-style: normal; font-variant-ligatures: normal; font-variant-caps: normal; letter-spacing: normal; orphans: 2; text-align: center; text-indent: 0px; text-transform: none; widows: 2; word-spacing: 0px; -webkit-text-stroke-width: 0px; text-decoration-thickness: initial; text-decoration-style: initial; text-decoration-color: initial;&quot;&gt;&lt;span style=&quot;background-color: rgb(0, 251, 109);&quot;&gt;paises&lt;/span&gt;&lt;br&gt;&lt;/b&gt;" style="rounded=0;whiteSpace=wrap;html=1;fillColor=none;fontColor=#ffffff;strokeColor=#005700;" vertex="1" parent="1">
          <mxGeometry x="407.5" y="560" width="115" height="58" as="geometry" />
        </mxCell>
        <mxCell id="kg1b0J_HvHA9DWDyzsrl-30" style="edgeStyle=orthogonalEdgeStyle;rounded=0;orthogonalLoop=1;jettySize=auto;html=1;exitX=0.5;exitY=1;exitDx=0;exitDy=0;entryX=0.424;entryY=-0.058;entryDx=0;entryDy=0;entryPerimeter=0;" edge="1" parent="1" source="kg1b0J_HvHA9DWDyzsrl-5" target="kg1b0J_HvHA9DWDyzsrl-1">
          <mxGeometry relative="1" as="geometry" />
        </mxCell>
        <mxCell id="kg1b0J_HvHA9DWDyzsrl-5" value="&lt;b&gt;&lt;i&gt;carrera_id&lt;/i&gt;&lt;/b&gt;" style="ellipse;whiteSpace=wrap;html=1;" vertex="1" parent="1">
          <mxGeometry x="200" y="10" width="120" height="80" as="geometry" />
        </mxCell>
        <mxCell id="kg1b0J_HvHA9DWDyzsrl-31" style="edgeStyle=orthogonalEdgeStyle;rounded=0;orthogonalLoop=1;jettySize=auto;html=1;exitX=0.5;exitY=1;exitDx=0;exitDy=0;entryX=0;entryY=0;entryDx=0;entryDy=0;" edge="1" parent="1" source="kg1b0J_HvHA9DWDyzsrl-9" target="kg1b0J_HvHA9DWDyzsrl-1">
          <mxGeometry relative="1" as="geometry" />
        </mxCell>
        <mxCell id="kg1b0J_HvHA9DWDyzsrl-9" value="nombre" style="ellipse;whiteSpace=wrap;html=1;" vertex="1" parent="1">
          <mxGeometry x="70" y="10" width="120" height="80" as="geometry" />
        </mxCell>
        <mxCell id="kg1b0J_HvHA9DWDyzsrl-32" style="edgeStyle=orthogonalEdgeStyle;rounded=0;orthogonalLoop=1;jettySize=auto;html=1;exitX=1;exitY=1;exitDx=0;exitDy=0;entryX=0;entryY=0;entryDx=0;entryDy=0;" edge="1" parent="1" source="kg1b0J_HvHA9DWDyzsrl-10" target="kg1b0J_HvHA9DWDyzsrl-1">
          <mxGeometry relative="1" as="geometry" />
        </mxCell>
        <mxCell id="kg1b0J_HvHA9DWDyzsrl-10" value="&lt;i&gt;&lt;u&gt;tipo_carrera&lt;/u&gt;&lt;/i&gt;" style="ellipse;whiteSpace=wrap;html=1;" vertex="1" parent="1">
          <mxGeometry x="-50" y="40" width="120" height="80" as="geometry" />
        </mxCell>
        <mxCell id="kg1b0J_HvHA9DWDyzsrl-33" style="edgeStyle=orthogonalEdgeStyle;rounded=0;orthogonalLoop=1;jettySize=auto;html=1;exitX=1;exitY=1;exitDx=0;exitDy=0;" edge="1" parent="1" source="kg1b0J_HvHA9DWDyzsrl-11">
          <mxGeometry relative="1" as="geometry">
            <mxPoint x="210" y="190" as="targetPoint" />
          </mxGeometry>
        </mxCell>
        <mxCell id="kg1b0J_HvHA9DWDyzsrl-11" value="fecha" style="ellipse;whiteSpace=wrap;html=1;" vertex="1" parent="1">
          <mxGeometry x="-160" y="80" width="120" height="80" as="geometry" />
        </mxCell>
        <mxCell id="kg1b0J_HvHA9DWDyzsrl-12" value="&lt;b&gt;&lt;font style=&quot;font-size: 14px;&quot;&gt;pertenece&lt;/font&gt;&lt;/b&gt;" style="rhombus;whiteSpace=wrap;html=1;rounded=0;fillColor=#b1ddf0;strokeColor=#10739e;" vertex="1" parent="1">
          <mxGeometry x="440" y="189" width="95" height="80" as="geometry" />
        </mxCell>
        <mxCell id="kg1b0J_HvHA9DWDyzsrl-21" value="1" style="text;html=1;align=center;verticalAlign=middle;resizable=0;points=[];autosize=1;strokeColor=#BD7000;fillColor=#f0a30a;fontColor=#000000;" vertex="1" parent="1">
          <mxGeometry x="590" y="180" width="30" height="30" as="geometry" />
        </mxCell>
        <mxCell id="kg1b0J_HvHA9DWDyzsrl-34" style="edgeStyle=orthogonalEdgeStyle;rounded=0;orthogonalLoop=1;jettySize=auto;html=1;exitX=1;exitY=0.5;exitDx=0;exitDy=0;" edge="1" parent="1" source="kg1b0J_HvHA9DWDyzsrl-23">
          <mxGeometry relative="1" as="geometry">
            <mxPoint x="200" y="210" as="targetPoint" />
          </mxGeometry>
        </mxCell>
        <mxCell id="kg1b0J_HvHA9DWDyzsrl-23" value="tiempo" style="ellipse;whiteSpace=wrap;html=1;" vertex="1" parent="1">
          <mxGeometry x="-210" y="170" width="120" height="80" as="geometry" />
        </mxCell>
        <mxCell id="kg1b0J_HvHA9DWDyzsrl-35" style="edgeStyle=orthogonalEdgeStyle;rounded=0;orthogonalLoop=1;jettySize=auto;html=1;exitX=1;exitY=0.5;exitDx=0;exitDy=0;entryX=0;entryY=0.5;entryDx=0;entryDy=0;" edge="1" parent="1" source="kg1b0J_HvHA9DWDyzsrl-24" target="kg1b0J_HvHA9DWDyzsrl-1">
          <mxGeometry relative="1" as="geometry" />
        </mxCell>
        <mxCell id="kg1b0J_HvHA9DWDyzsrl-24" value="mejor_tiempo" style="ellipse;whiteSpace=wrap;html=1;" vertex="1" parent="1">
          <mxGeometry x="-210" y="258" width="120" height="80" as="geometry" />
        </mxCell>
        <mxCell id="kg1b0J_HvHA9DWDyzsrl-38" value="u" style="edgeStyle=orthogonalEdgeStyle;rounded=0;orthogonalLoop=1;jettySize=auto;html=1;exitX=0.5;exitY=0;exitDx=0;exitDy=0;entryX=0;entryY=0.75;entryDx=0;entryDy=0;" edge="1" parent="1" source="kg1b0J_HvHA9DWDyzsrl-25" target="kg1b0J_HvHA9DWDyzsrl-1">
          <mxGeometry relative="1" as="geometry" />
        </mxCell>
        <mxCell id="kg1b0J_HvHA9DWDyzsrl-25" value="lugar" style="ellipse;whiteSpace=wrap;html=1;" vertex="1" parent="1">
          <mxGeometry x="-60" y="400" width="120" height="80" as="geometry" />
        </mxCell>
        <mxCell id="kg1b0J_HvHA9DWDyzsrl-40" style="edgeStyle=orthogonalEdgeStyle;rounded=0;orthogonalLoop=1;jettySize=auto;html=1;exitX=0.5;exitY=0;exitDx=0;exitDy=0;" edge="1" parent="1" source="kg1b0J_HvHA9DWDyzsrl-26">
          <mxGeometry relative="1" as="geometry">
            <mxPoint x="260" y="260" as="targetPoint" />
          </mxGeometry>
        </mxCell>
        <mxCell id="kg1b0J_HvHA9DWDyzsrl-26" value="&lt;i&gt;&lt;u&gt;pais&lt;/u&gt;&lt;/i&gt;" style="ellipse;whiteSpace=wrap;html=1;" vertex="1" parent="1">
          <mxGeometry x="70" y="380" width="120" height="80" as="geometry" />
        </mxCell>
        <mxCell id="kg1b0J_HvHA9DWDyzsrl-36" style="edgeStyle=orthogonalEdgeStyle;rounded=0;orthogonalLoop=1;jettySize=auto;html=1;exitX=1;exitY=0;exitDx=0;exitDy=0;entryX=0;entryY=0.75;entryDx=0;entryDy=0;" edge="1" parent="1" source="kg1b0J_HvHA9DWDyzsrl-28" target="kg1b0J_HvHA9DWDyzsrl-1">
          <mxGeometry relative="1" as="geometry" />
        </mxCell>
        <mxCell id="kg1b0J_HvHA9DWDyzsrl-28" value="altitud" style="ellipse;whiteSpace=wrap;html=1;" vertex="1" parent="1">
          <mxGeometry x="-160" y="340" width="120" height="80" as="geometry" />
        </mxCell>
        <mxCell id="kg1b0J_HvHA9DWDyzsrl-39" style="edgeStyle=orthogonalEdgeStyle;rounded=0;orthogonalLoop=1;jettySize=auto;html=1;exitX=0.5;exitY=0;exitDx=0;exitDy=0;entryX=0.416;entryY=1.102;entryDx=0;entryDy=0;entryPerimeter=0;" edge="1" parent="1" source="kg1b0J_HvHA9DWDyzsrl-29" target="kg1b0J_HvHA9DWDyzsrl-1">
          <mxGeometry relative="1" as="geometry" />
        </mxCell>
        <mxCell id="kg1b0J_HvHA9DWDyzsrl-29" value="foto" style="ellipse;whiteSpace=wrap;html=1;" vertex="1" parent="1">
          <mxGeometry x="200" y="340" width="120" height="80" as="geometry" />
        </mxCell>
        <mxCell id="kg1b0J_HvHA9DWDyzsrl-41" value="&lt;font color=&quot;#000000&quot;&gt;&lt;b&gt;tipo_carrera_id&lt;/b&gt;&lt;/font&gt;" style="ellipse;whiteSpace=wrap;html=1;fillColor=none;strokeColor=#314354;fontColor=#ffffff;rounded=0;" vertex="1" parent="1">
          <mxGeometry x="725" y="51" width="105" height="80" as="geometry" />
        </mxCell>
        <mxCell id="kg1b0J_HvHA9DWDyzsrl-43" value="&lt;font color=&quot;#000000&quot;&gt;descripcion&lt;br&gt;&lt;/font&gt;" style="ellipse;whiteSpace=wrap;html=1;fillColor=none;strokeColor=#00FB6D;fontColor=#ffffff;rounded=0;" vertex="1" parent="1">
          <mxGeometry x="995" y="189" width="80" height="80" as="geometry" />
        </mxCell>
        <mxCell id="kg1b0J_HvHA9DWDyzsrl-45" value="&lt;font color=&quot;#000000&quot;&gt;distancia&lt;/font&gt;" style="ellipse;whiteSpace=wrap;html=1;fillColor=none;strokeColor=#00FB6D;fontColor=#ffffff;rounded=0;" vertex="1" parent="1">
          <mxGeometry x="725" y="327" width="80" height="80" as="geometry" />
        </mxCell>
        <mxCell id="kg1b0J_HvHA9DWDyzsrl-47" value="&lt;font color=&quot;#000000&quot;&gt;se corre&lt;/font&gt;" style="rhombus;whiteSpace=wrap;html=1;fillColor=#b1ddf0;strokeColor=#10739e;rounded=0;" vertex="1" parent="1">
          <mxGeometry x="425" y="338" width="80" height="80" as="geometry" />
        </mxCell>
        <mxCell id="kg1b0J_HvHA9DWDyzsrl-51" value="" style="edgeStyle=orthogonalEdgeStyle;rounded=0;orthogonalLoop=1;jettySize=auto;html=1;exitX=1;exitY=1;exitDx=0;exitDy=0;" edge="1" parent="1" source="kg1b0J_HvHA9DWDyzsrl-1" target="kg1b0J_HvHA9DWDyzsrl-20">
          <mxGeometry relative="1" as="geometry">
            <mxPoint x="330" y="258" as="sourcePoint" />
            <mxPoint x="410" y="310" as="targetPoint" />
            <Array as="points">
              <mxPoint x="330" y="270" />
              <mxPoint x="354" y="270" />
              <mxPoint x="354" y="273" />
            </Array>
          </mxGeometry>
        </mxCell>
        <mxCell id="kg1b0J_HvHA9DWDyzsrl-20" value="1" style="text;html=1;align=center;verticalAlign=middle;resizable=0;points=[];autosize=1;strokeColor=#BD7000;fillColor=#f0a30a;fontColor=#000000;" vertex="1" parent="1">
          <mxGeometry x="377.5" y="258" width="30" height="30" as="geometry" />
        </mxCell>
        <mxCell id="kg1b0J_HvHA9DWDyzsrl-52" value="1" style="text;html=1;align=center;verticalAlign=middle;resizable=0;points=[];autosize=1;strokeColor=#BD7000;fillColor=#f0a30a;fontColor=#000000;" vertex="1" parent="1">
          <mxGeometry x="380" y="180" width="30" height="30" as="geometry" />
        </mxCell>
        <mxCell id="kg1b0J_HvHA9DWDyzsrl-54" value="" style="edgeStyle=orthogonalEdgeStyle;rounded=0;orthogonalLoop=1;jettySize=auto;html=1;" edge="1" parent="1" source="kg1b0J_HvHA9DWDyzsrl-4" target="kg1b0J_HvHA9DWDyzsrl-53">
          <mxGeometry relative="1" as="geometry">
            <mxPoint x="498" y="480" as="sourcePoint" />
            <mxPoint x="410" y="390" as="targetPoint" />
          </mxGeometry>
        </mxCell>
        <mxCell id="kg1b0J_HvHA9DWDyzsrl-53" value="1" style="text;html=1;align=center;verticalAlign=middle;resizable=0;points=[];autosize=1;strokeColor=#BD7000;fillColor=#f0a30a;fontColor=#000000;" vertex="1" parent="1">
          <mxGeometry x="450" y="460" width="30" height="30" as="geometry" />
        </mxCell>
        <mxCell id="kg1b0J_HvHA9DWDyzsrl-55" value="&lt;font color=&quot;#000000&quot;&gt;&lt;b&gt;pais_id&lt;/b&gt;&lt;/font&gt;" style="ellipse;whiteSpace=wrap;html=1;fillColor=none;strokeColor=#005700;fontColor=#ffffff;rounded=0;" vertex="1" parent="1">
          <mxGeometry x="320" y="687" width="80" height="80" as="geometry" />
        </mxCell>
        <mxCell id="kg1b0J_HvHA9DWDyzsrl-57" value="&lt;font color=&quot;#000000&quot;&gt;nombre&lt;/font&gt;" style="ellipse;whiteSpace=wrap;html=1;fillColor=none;strokeColor=#005700;fontColor=#ffffff;rounded=0;" vertex="1" parent="1">
          <mxGeometry x="535" y="687" width="80" height="80" as="geometry" />
        </mxCell>
      </root>
    </mxGraphModel>
  </diagram>
</mxfile>
